<mxfile host="app.diagrams.net" modified="2024-02-27T19:07:35.653Z" agent="Mozilla/5.0 (Windows NT 10.0; Win64; x64) AppleWebKit/537.36 (KHTML, like Gecko) Chrome/121.0.0.0 Safari/537.36" etag="-N_Aj8PMmTAym4ZhVRrm" version="23.1.7" type="device">
  <diagram name="PÃ¡gina-1" id="L-qEfantu6RQ2V6-9uzX">
    <mxGraphModel dx="724" dy="1535" grid="1" gridSize="10" guides="1" tooltips="1" connect="1" arrows="1" fold="1" page="1" pageScale="1" pageWidth="827" pageHeight="1169" math="0" shadow="0">
      <root>
        <mxCell id="0" />
        <mxCell id="1" parent="0" />
        <mxCell id="9xIQcFNXHzisJka93iCH-108" style="edgeStyle=orthogonalEdgeStyle;rounded=0;orthogonalLoop=1;jettySize=auto;html=1;exitX=0.5;exitY=0.07;exitDx=0;exitDy=0;exitPerimeter=0;entryX=0.75;entryY=1;entryDx=0;entryDy=0;" edge="1" parent="1" source="9xIQcFNXHzisJka93iCH-5" target="9xIQcFNXHzisJka93iCH-33">
          <mxGeometry relative="1" as="geometry" />
        </mxCell>
        <mxCell id="9xIQcFNXHzisJka93iCH-5" value="" style="fontColor=#0066CC;verticalAlign=top;verticalLabelPosition=bottom;labelPosition=center;align=center;html=1;outlineConnect=0;fillColor=#CCCCCC;strokeColor=#6881B3;gradientColor=none;gradientDirection=north;strokeWidth=2;shape=mxgraph.networks.pc;" vertex="1" parent="1">
          <mxGeometry x="210" y="440" width="70" height="50" as="geometry" />
        </mxCell>
        <mxCell id="9xIQcFNXHzisJka93iCH-38" style="edgeStyle=orthogonalEdgeStyle;rounded=0;orthogonalLoop=1;jettySize=auto;html=1;exitX=0;exitY=0.5;exitDx=0;exitDy=0;exitPerimeter=0;entryX=1;entryY=1;entryDx=0;entryDy=0;" edge="1" parent="1" source="9xIQcFNXHzisJka93iCH-6" target="9xIQcFNXHzisJka93iCH-33">
          <mxGeometry relative="1" as="geometry" />
        </mxCell>
        <mxCell id="9xIQcFNXHzisJka93iCH-6" value="" style="fontColor=#0066CC;verticalAlign=top;verticalLabelPosition=bottom;labelPosition=center;align=center;html=1;outlineConnect=0;fillColor=#CCCCCC;strokeColor=#6881B3;gradientColor=none;gradientDirection=north;strokeWidth=2;shape=mxgraph.networks.pc;" vertex="1" parent="1">
          <mxGeometry x="414" y="500" width="70" height="50" as="geometry" />
        </mxCell>
        <mxCell id="9xIQcFNXHzisJka93iCH-40" style="edgeStyle=orthogonalEdgeStyle;rounded=0;orthogonalLoop=1;jettySize=auto;html=1;exitX=0.5;exitY=0.07;exitDx=0;exitDy=0;exitPerimeter=0;" edge="1" parent="1" source="9xIQcFNXHzisJka93iCH-7" target="9xIQcFNXHzisJka93iCH-33">
          <mxGeometry relative="1" as="geometry" />
        </mxCell>
        <mxCell id="9xIQcFNXHzisJka93iCH-7" value="" style="fontColor=#0066CC;verticalAlign=top;verticalLabelPosition=bottom;labelPosition=center;align=center;html=1;outlineConnect=0;fillColor=#CCCCCC;strokeColor=#6881B3;gradientColor=none;gradientDirection=north;strokeWidth=2;shape=mxgraph.networks.pc;" vertex="1" parent="1">
          <mxGeometry x="50" y="380" width="70" height="50" as="geometry" />
        </mxCell>
        <mxCell id="9xIQcFNXHzisJka93iCH-106" style="edgeStyle=orthogonalEdgeStyle;rounded=0;orthogonalLoop=1;jettySize=auto;html=1;exitX=0.5;exitY=0.07;exitDx=0;exitDy=0;exitPerimeter=0;entryX=0;entryY=0.5;entryDx=0;entryDy=0;" edge="1" parent="1" source="9xIQcFNXHzisJka93iCH-8" target="9xIQcFNXHzisJka93iCH-33">
          <mxGeometry relative="1" as="geometry" />
        </mxCell>
        <mxCell id="9xIQcFNXHzisJka93iCH-8" value="" style="fontColor=#0066CC;verticalAlign=top;verticalLabelPosition=bottom;labelPosition=center;align=center;html=1;outlineConnect=0;fillColor=#CCCCCC;strokeColor=#6881B3;gradientColor=none;gradientDirection=north;strokeWidth=2;shape=mxgraph.networks.pc;" vertex="1" parent="1">
          <mxGeometry x="20" y="260" width="70" height="50" as="geometry" />
        </mxCell>
        <mxCell id="9xIQcFNXHzisJka93iCH-121" style="edgeStyle=orthogonalEdgeStyle;rounded=0;orthogonalLoop=1;jettySize=auto;html=1;exitX=0.5;exitY=0;exitDx=0;exitDy=0;entryX=0.5;entryY=1;entryDx=0;entryDy=0;" edge="1" parent="1" source="9xIQcFNXHzisJka93iCH-9" target="9xIQcFNXHzisJka93iCH-16">
          <mxGeometry relative="1" as="geometry" />
        </mxCell>
        <mxCell id="9xIQcFNXHzisJka93iCH-9" value="" style="image;html=1;image=img/lib/clip_art/networking/Router_128x128.png" vertex="1" parent="1">
          <mxGeometry x="600" y="690" width="70" height="60" as="geometry" />
        </mxCell>
        <mxCell id="9xIQcFNXHzisJka93iCH-110" style="edgeStyle=orthogonalEdgeStyle;rounded=0;orthogonalLoop=1;jettySize=auto;html=1;exitX=0;exitY=0;exitDx=0;exitDy=0;entryX=1;entryY=0.75;entryDx=0;entryDy=0;" edge="1" parent="1" source="9xIQcFNXHzisJka93iCH-16" target="9xIQcFNXHzisJka93iCH-33">
          <mxGeometry relative="1" as="geometry" />
        </mxCell>
        <mxCell id="9xIQcFNXHzisJka93iCH-16" value="" style="image;html=1;image=img/lib/clip_art/computers/Server_Tower_128x128.png" vertex="1" parent="1">
          <mxGeometry x="550" y="470" width="80" height="80" as="geometry" />
        </mxCell>
        <mxCell id="9xIQcFNXHzisJka93iCH-35" style="edgeStyle=orthogonalEdgeStyle;rounded=0;orthogonalLoop=1;jettySize=auto;html=1;exitX=1;exitY=0.5;exitDx=0;exitDy=0;entryX=0.25;entryY=0;entryDx=0;entryDy=0;" edge="1" parent="1" source="9xIQcFNXHzisJka93iCH-20" target="9xIQcFNXHzisJka93iCH-33">
          <mxGeometry relative="1" as="geometry" />
        </mxCell>
        <mxCell id="9xIQcFNXHzisJka93iCH-20" value="" style="image;html=1;image=img/lib/clip_art/computers/Printer_128x128.png" vertex="1" parent="1">
          <mxGeometry x="200" y="200" width="70" height="70" as="geometry" />
        </mxCell>
        <mxCell id="9xIQcFNXHzisJka93iCH-53" style="edgeStyle=orthogonalEdgeStyle;rounded=0;orthogonalLoop=1;jettySize=auto;html=1;exitX=0;exitY=0.5;exitDx=0;exitDy=0;entryX=1;entryY=0.25;entryDx=0;entryDy=0;" edge="1" parent="1" source="9xIQcFNXHzisJka93iCH-21" target="9xIQcFNXHzisJka93iCH-33">
          <mxGeometry relative="1" as="geometry" />
        </mxCell>
        <mxCell id="9xIQcFNXHzisJka93iCH-21" value="" style="image;html=1;image=img/lib/clip_art/computers/Printer_128x128.png" vertex="1" parent="1">
          <mxGeometry x="420" y="178.5" width="70" height="70" as="geometry" />
        </mxCell>
        <mxCell id="9xIQcFNXHzisJka93iCH-22" value="" style="image;html=1;image=img/lib/clip_art/computers/Printer_128x128.png" vertex="1" parent="1">
          <mxGeometry x="300" y="140" width="70" height="70" as="geometry" />
        </mxCell>
        <mxCell id="9xIQcFNXHzisJka93iCH-111" style="edgeStyle=orthogonalEdgeStyle;rounded=0;orthogonalLoop=1;jettySize=auto;html=1;exitX=1;exitY=0.5;exitDx=0;exitDy=0;entryX=1;entryY=0.5;entryDx=0;entryDy=0;" edge="1" parent="1" source="9xIQcFNXHzisJka93iCH-33" target="9xIQcFNXHzisJka93iCH-102">
          <mxGeometry relative="1" as="geometry" />
        </mxCell>
        <mxCell id="9xIQcFNXHzisJka93iCH-33" value="" style="image;html=1;image=img/lib/clip_art/networking/Switch_128x128.png" vertex="1" parent="1">
          <mxGeometry x="295" y="280" width="80" height="80" as="geometry" />
        </mxCell>
        <mxCell id="9xIQcFNXHzisJka93iCH-34" style="edgeStyle=orthogonalEdgeStyle;rounded=0;orthogonalLoop=1;jettySize=auto;html=1;exitX=0.5;exitY=1;exitDx=0;exitDy=0;entryX=0.628;entryY=-0.065;entryDx=0;entryDy=0;entryPerimeter=0;" edge="1" parent="1" source="9xIQcFNXHzisJka93iCH-22" target="9xIQcFNXHzisJka93iCH-33">
          <mxGeometry relative="1" as="geometry" />
        </mxCell>
        <mxCell id="9xIQcFNXHzisJka93iCH-120" style="edgeStyle=orthogonalEdgeStyle;rounded=0;orthogonalLoop=1;jettySize=auto;html=1;exitX=1;exitY=0.5;exitDx=0;exitDy=0;" edge="1" parent="1" source="9xIQcFNXHzisJka93iCH-42" target="9xIQcFNXHzisJka93iCH-9">
          <mxGeometry relative="1" as="geometry" />
        </mxCell>
        <mxCell id="9xIQcFNXHzisJka93iCH-42" value="" style="image;aspect=fixed;perimeter=ellipsePerimeter;html=1;align=center;shadow=0;dashed=0;spacingTop=3;image=img/lib/active_directory/internet_cloud.svg;" vertex="1" parent="1">
          <mxGeometry x="262.38" y="640" width="97.62" height="61.5" as="geometry" />
        </mxCell>
        <mxCell id="9xIQcFNXHzisJka93iCH-68" style="edgeStyle=orthogonalEdgeStyle;rounded=0;orthogonalLoop=1;jettySize=auto;html=1;exitX=0.5;exitY=1;exitDx=0;exitDy=0;" edge="1" parent="1" source="9xIQcFNXHzisJka93iCH-54">
          <mxGeometry relative="1" as="geometry">
            <mxPoint x="380" y="-60" as="targetPoint" />
          </mxGeometry>
        </mxCell>
        <mxCell id="9xIQcFNXHzisJka93iCH-54" value="" style="image;html=1;image=img/lib/clip_art/computers/Printer_128x128.png" vertex="1" parent="1">
          <mxGeometry x="380" y="-160" width="80" height="80" as="geometry" />
        </mxCell>
        <mxCell id="9xIQcFNXHzisJka93iCH-67" style="edgeStyle=orthogonalEdgeStyle;rounded=0;orthogonalLoop=1;jettySize=auto;html=1;exitX=0.5;exitY=1;exitDx=0;exitDy=0;entryX=0;entryY=0.25;entryDx=0;entryDy=0;" edge="1" parent="1" source="9xIQcFNXHzisJka93iCH-55">
          <mxGeometry relative="1" as="geometry">
            <mxPoint x="305" y="-36" as="targetPoint" />
          </mxGeometry>
        </mxCell>
        <mxCell id="9xIQcFNXHzisJka93iCH-55" value="" style="image;html=1;image=img/lib/clip_art/computers/Printer_128x128.png" vertex="1" parent="1">
          <mxGeometry x="230" y="-160" width="80" height="80" as="geometry" />
        </mxCell>
        <mxCell id="9xIQcFNXHzisJka93iCH-117" style="edgeStyle=orthogonalEdgeStyle;rounded=0;orthogonalLoop=1;jettySize=auto;html=1;exitX=0.5;exitY=0.07;exitDx=0;exitDy=0;exitPerimeter=0;entryX=0.25;entryY=1;entryDx=0;entryDy=0;" edge="1" parent="1" source="9xIQcFNXHzisJka93iCH-56" target="9xIQcFNXHzisJka93iCH-94">
          <mxGeometry relative="1" as="geometry" />
        </mxCell>
        <mxCell id="9xIQcFNXHzisJka93iCH-56" value="" style="fontColor=#0066CC;verticalAlign=top;verticalLabelPosition=bottom;labelPosition=center;align=center;html=1;outlineConnect=0;fillColor=#CCCCCC;strokeColor=#6881B3;gradientColor=none;gradientDirection=north;strokeWidth=2;shape=mxgraph.networks.pc;" vertex="1" parent="1">
          <mxGeometry x="230" y="67" width="80" height="60" as="geometry" />
        </mxCell>
        <mxCell id="9xIQcFNXHzisJka93iCH-118" style="edgeStyle=orthogonalEdgeStyle;rounded=0;orthogonalLoop=1;jettySize=auto;html=1;exitX=0;exitY=0;exitDx=0;exitDy=0;exitPerimeter=0;entryX=0.75;entryY=1;entryDx=0;entryDy=0;" edge="1" parent="1" source="9xIQcFNXHzisJka93iCH-57" target="9xIQcFNXHzisJka93iCH-94">
          <mxGeometry relative="1" as="geometry" />
        </mxCell>
        <mxCell id="9xIQcFNXHzisJka93iCH-57" value="" style="fontColor=#0066CC;verticalAlign=top;verticalLabelPosition=bottom;labelPosition=center;align=center;html=1;outlineConnect=0;fillColor=#CCCCCC;strokeColor=#6881B3;gradientColor=none;gradientDirection=north;strokeWidth=2;shape=mxgraph.networks.pc;" vertex="1" parent="1">
          <mxGeometry x="409" y="70" width="80" height="74" as="geometry" />
        </mxCell>
        <mxCell id="9xIQcFNXHzisJka93iCH-116" style="edgeStyle=orthogonalEdgeStyle;rounded=0;orthogonalLoop=1;jettySize=auto;html=1;exitX=0.5;exitY=0.07;exitDx=0;exitDy=0;exitPerimeter=0;entryX=0;entryY=0.75;entryDx=0;entryDy=0;" edge="1" parent="1" source="9xIQcFNXHzisJka93iCH-58" target="9xIQcFNXHzisJka93iCH-94">
          <mxGeometry relative="1" as="geometry" />
        </mxCell>
        <mxCell id="9xIQcFNXHzisJka93iCH-58" value="" style="fontColor=#0066CC;verticalAlign=top;verticalLabelPosition=bottom;labelPosition=center;align=center;html=1;outlineConnect=0;fillColor=#CCCCCC;strokeColor=#6881B3;gradientColor=none;gradientDirection=north;strokeWidth=2;shape=mxgraph.networks.pc;" vertex="1" parent="1">
          <mxGeometry x="100" y="50" width="80" height="69" as="geometry" />
        </mxCell>
        <mxCell id="9xIQcFNXHzisJka93iCH-112" style="edgeStyle=orthogonalEdgeStyle;rounded=0;orthogonalLoop=1;jettySize=auto;html=1;exitX=0.95;exitY=1;exitDx=0;exitDy=0;exitPerimeter=0;entryX=0;entryY=0.25;entryDx=0;entryDy=0;" edge="1" parent="1" source="9xIQcFNXHzisJka93iCH-59" target="9xIQcFNXHzisJka93iCH-94">
          <mxGeometry relative="1" as="geometry" />
        </mxCell>
        <mxCell id="9xIQcFNXHzisJka93iCH-59" value="" style="fontColor=#0066CC;verticalAlign=top;verticalLabelPosition=bottom;labelPosition=center;align=center;html=1;outlineConnect=0;fillColor=#CCCCCC;strokeColor=#6881B3;gradientColor=none;gradientDirection=north;strokeWidth=2;shape=mxgraph.networks.pc;" vertex="1" parent="1">
          <mxGeometry x="90" y="-130" width="80" height="60" as="geometry" />
        </mxCell>
        <mxCell id="9xIQcFNXHzisJka93iCH-113" style="edgeStyle=orthogonalEdgeStyle;rounded=0;orthogonalLoop=1;jettySize=auto;html=1;exitX=1;exitY=0.5;exitDx=0;exitDy=0;exitPerimeter=0;" edge="1" parent="1" source="9xIQcFNXHzisJka93iCH-60" target="9xIQcFNXHzisJka93iCH-94">
          <mxGeometry relative="1" as="geometry" />
        </mxCell>
        <mxCell id="9xIQcFNXHzisJka93iCH-60" value="" style="fontColor=#0066CC;verticalAlign=top;verticalLabelPosition=bottom;labelPosition=center;align=center;html=1;outlineConnect=0;fillColor=#CCCCCC;strokeColor=#6881B3;gradientColor=none;gradientDirection=north;strokeWidth=2;shape=mxgraph.networks.pc;" vertex="1" parent="1">
          <mxGeometry x="50" y="-36" width="70" height="60" as="geometry" />
        </mxCell>
        <mxCell id="9xIQcFNXHzisJka93iCH-123" style="edgeStyle=orthogonalEdgeStyle;rounded=0;orthogonalLoop=1;jettySize=auto;html=1;exitX=0;exitY=0.5;exitDx=0;exitDy=0;entryX=0.5;entryY=1;entryDx=0;entryDy=0;" edge="1" parent="1" source="9xIQcFNXHzisJka93iCH-69" target="9xIQcFNXHzisJka93iCH-100">
          <mxGeometry relative="1" as="geometry" />
        </mxCell>
        <mxCell id="9xIQcFNXHzisJka93iCH-69" value="" style="shape=image;html=1;verticalAlign=top;verticalLabelPosition=bottom;labelBackgroundColor=#ffffff;imageAspect=0;aspect=fixed;image=https://cdn4.iconfinder.com/data/icons/ios-web-user-interface-multi-circle-flat-vol-2/512/Archive_archives_files_hosting_database_server_storage-128.png" vertex="1" parent="1">
          <mxGeometry x="430" y="-290" width="90" height="90" as="geometry" />
        </mxCell>
        <mxCell id="9xIQcFNXHzisJka93iCH-130" style="edgeStyle=orthogonalEdgeStyle;rounded=0;orthogonalLoop=1;jettySize=auto;html=1;exitX=1;exitY=0.5;exitDx=0;exitDy=0;exitPerimeter=0;entryX=0;entryY=0.25;entryDx=0;entryDy=0;" edge="1" parent="1" source="9xIQcFNXHzisJka93iCH-71" target="9xIQcFNXHzisJka93iCH-100">
          <mxGeometry relative="1" as="geometry" />
        </mxCell>
        <mxCell id="9xIQcFNXHzisJka93iCH-71" value="" style="fontColor=#0066CC;verticalAlign=top;verticalLabelPosition=bottom;labelPosition=center;align=center;html=1;outlineConnect=0;fillColor=#CCCCCC;strokeColor=#6881B3;gradientColor=none;gradientDirection=north;strokeWidth=2;shape=mxgraph.networks.pc;" vertex="1" parent="1">
          <mxGeometry x="80" y="-490" width="100" height="70" as="geometry" />
        </mxCell>
        <mxCell id="9xIQcFNXHzisJka93iCH-72" value="" style="fontColor=#0066CC;verticalAlign=top;verticalLabelPosition=bottom;labelPosition=center;align=center;html=1;outlineConnect=0;fillColor=#CCCCCC;strokeColor=#6881B3;gradientColor=none;gradientDirection=north;strokeWidth=2;shape=mxgraph.networks.pc;" vertex="1" parent="1">
          <mxGeometry x="510" y="-500" width="100" height="70" as="geometry" />
        </mxCell>
        <mxCell id="9xIQcFNXHzisJka93iCH-131" style="edgeStyle=orthogonalEdgeStyle;rounded=0;orthogonalLoop=1;jettySize=auto;html=1;exitX=1;exitY=0.5;exitDx=0;exitDy=0;exitPerimeter=0;" edge="1" parent="1" source="9xIQcFNXHzisJka93iCH-73" target="9xIQcFNXHzisJka93iCH-100">
          <mxGeometry relative="1" as="geometry" />
        </mxCell>
        <mxCell id="9xIQcFNXHzisJka93iCH-73" value="" style="fontColor=#0066CC;verticalAlign=top;verticalLabelPosition=bottom;labelPosition=center;align=center;html=1;outlineConnect=0;fillColor=#CCCCCC;strokeColor=#6881B3;gradientColor=none;gradientDirection=north;strokeWidth=2;shape=mxgraph.networks.pc;" vertex="1" parent="1">
          <mxGeometry x="90" y="-380" width="100" height="70" as="geometry" />
        </mxCell>
        <mxCell id="9xIQcFNXHzisJka93iCH-124" style="edgeStyle=orthogonalEdgeStyle;rounded=0;orthogonalLoop=1;jettySize=auto;html=1;exitX=0;exitY=0.5;exitDx=0;exitDy=0;exitPerimeter=0;entryX=1;entryY=0.25;entryDx=0;entryDy=0;" edge="1" parent="1" source="9xIQcFNXHzisJka93iCH-74" target="9xIQcFNXHzisJka93iCH-100">
          <mxGeometry relative="1" as="geometry" />
        </mxCell>
        <mxCell id="9xIQcFNXHzisJka93iCH-74" value="" style="fontColor=#0066CC;verticalAlign=top;verticalLabelPosition=bottom;labelPosition=center;align=center;html=1;outlineConnect=0;fillColor=#CCCCCC;strokeColor=#6881B3;gradientColor=none;gradientDirection=north;strokeWidth=2;shape=mxgraph.networks.pc;" vertex="1" parent="1">
          <mxGeometry x="560" y="-420" width="100" height="70" as="geometry" />
        </mxCell>
        <mxCell id="9xIQcFNXHzisJka93iCH-128" style="edgeStyle=orthogonalEdgeStyle;rounded=0;orthogonalLoop=1;jettySize=auto;html=1;exitX=0.75;exitY=1;exitDx=0;exitDy=0;entryX=0.25;entryY=0;entryDx=0;entryDy=0;" edge="1" parent="1" source="9xIQcFNXHzisJka93iCH-80" target="9xIQcFNXHzisJka93iCH-100">
          <mxGeometry relative="1" as="geometry" />
        </mxCell>
        <mxCell id="9xIQcFNXHzisJka93iCH-80" value="" style="image;html=1;image=img/lib/clip_art/computers/Netbook_128x128.png" vertex="1" parent="1">
          <mxGeometry x="220" y="-640" width="80" height="80" as="geometry" />
        </mxCell>
        <mxCell id="9xIQcFNXHzisJka93iCH-127" style="edgeStyle=orthogonalEdgeStyle;rounded=0;orthogonalLoop=1;jettySize=auto;html=1;exitX=0.25;exitY=1;exitDx=0;exitDy=0;" edge="1" parent="1" source="9xIQcFNXHzisJka93iCH-81" target="9xIQcFNXHzisJka93iCH-100">
          <mxGeometry relative="1" as="geometry" />
        </mxCell>
        <mxCell id="9xIQcFNXHzisJka93iCH-81" value="" style="image;html=1;image=img/lib/clip_art/computers/Netbook_128x128.png" vertex="1" parent="1">
          <mxGeometry x="320" y="-620" width="80" height="80" as="geometry" />
        </mxCell>
        <mxCell id="9xIQcFNXHzisJka93iCH-129" style="edgeStyle=orthogonalEdgeStyle;rounded=0;orthogonalLoop=1;jettySize=auto;html=1;exitX=1;exitY=1;exitDx=0;exitDy=0;entryX=0;entryY=0;entryDx=0;entryDy=0;" edge="1" parent="1" source="9xIQcFNXHzisJka93iCH-82" target="9xIQcFNXHzisJka93iCH-100">
          <mxGeometry relative="1" as="geometry" />
        </mxCell>
        <mxCell id="9xIQcFNXHzisJka93iCH-82" value="" style="image;html=1;image=img/lib/clip_art/computers/Netbook_128x128.png" vertex="1" parent="1">
          <mxGeometry x="160" y="-570" width="80" height="80" as="geometry" />
        </mxCell>
        <mxCell id="9xIQcFNXHzisJka93iCH-97" style="edgeStyle=orthogonalEdgeStyle;rounded=0;orthogonalLoop=1;jettySize=auto;html=1;entryX=0.5;entryY=0;entryDx=0;entryDy=0;" edge="1" parent="1" source="9xIQcFNXHzisJka93iCH-86" target="9xIQcFNXHzisJka93iCH-94">
          <mxGeometry relative="1" as="geometry" />
        </mxCell>
        <mxCell id="9xIQcFNXHzisJka93iCH-86" value="" style="image;html=1;image=img/lib/clip_art/computers/Printer_128x128.png" vertex="1" parent="1">
          <mxGeometry x="295" y="-250" width="80" height="80" as="geometry" />
        </mxCell>
        <mxCell id="9xIQcFNXHzisJka93iCH-126" style="edgeStyle=orthogonalEdgeStyle;rounded=0;orthogonalLoop=1;jettySize=auto;html=1;exitX=0;exitY=0.75;exitDx=0;exitDy=0;entryX=0.75;entryY=0;entryDx=0;entryDy=0;" edge="1" parent="1" source="9xIQcFNXHzisJka93iCH-87" target="9xIQcFNXHzisJka93iCH-100">
          <mxGeometry relative="1" as="geometry" />
        </mxCell>
        <mxCell id="9xIQcFNXHzisJka93iCH-87" value="" style="image;html=1;image=img/lib/clip_art/computers/Printer_128x128.png" vertex="1" parent="1">
          <mxGeometry x="440" y="-570" width="80" height="80" as="geometry" />
        </mxCell>
        <mxCell id="9xIQcFNXHzisJka93iCH-119" style="edgeStyle=orthogonalEdgeStyle;rounded=0;orthogonalLoop=1;jettySize=auto;html=1;exitX=1;exitY=0.5;exitDx=0;exitDy=0;entryX=0;entryY=0.5;entryDx=0;entryDy=0;" edge="1" parent="1" source="9xIQcFNXHzisJka93iCH-94" target="9xIQcFNXHzisJka93iCH-102">
          <mxGeometry relative="1" as="geometry" />
        </mxCell>
        <mxCell id="9xIQcFNXHzisJka93iCH-94" value="" style="image;html=1;image=img/lib/clip_art/networking/Switch_128x128.png" vertex="1" parent="1">
          <mxGeometry x="310" y="-56" width="80" height="80" as="geometry" />
        </mxCell>
        <mxCell id="9xIQcFNXHzisJka93iCH-95" style="edgeStyle=orthogonalEdgeStyle;rounded=0;orthogonalLoop=1;jettySize=auto;html=1;exitX=0.5;exitY=1;exitDx=0;exitDy=0;" edge="1" parent="1" source="9xIQcFNXHzisJka93iCH-69" target="9xIQcFNXHzisJka93iCH-69">
          <mxGeometry relative="1" as="geometry" />
        </mxCell>
        <mxCell id="9xIQcFNXHzisJka93iCH-104" style="edgeStyle=orthogonalEdgeStyle;rounded=0;orthogonalLoop=1;jettySize=auto;html=1;exitX=1;exitY=0.5;exitDx=0;exitDy=0;entryX=0.5;entryY=0;entryDx=0;entryDy=0;" edge="1" parent="1" source="9xIQcFNXHzisJka93iCH-100" target="9xIQcFNXHzisJka93iCH-102">
          <mxGeometry relative="1" as="geometry" />
        </mxCell>
        <mxCell id="9xIQcFNXHzisJka93iCH-100" value="" style="image;html=1;image=img/lib/clip_art/networking/Switch_128x128.png" vertex="1" parent="1">
          <mxGeometry x="295" y="-385" width="80" height="80" as="geometry" />
        </mxCell>
        <mxCell id="9xIQcFNXHzisJka93iCH-102" value="" style="image;html=1;image=img/lib/clip_art/networking/Switch_128x128.png" vertex="1" parent="1">
          <mxGeometry x="660" y="-160" width="80" height="80" as="geometry" />
        </mxCell>
        <mxCell id="9xIQcFNXHzisJka93iCH-107" style="edgeStyle=orthogonalEdgeStyle;rounded=0;orthogonalLoop=1;jettySize=auto;html=1;exitX=0.5;exitY=0.07;exitDx=0;exitDy=0;exitPerimeter=0;entryX=0;entryY=0;entryDx=0;entryDy=0;entryPerimeter=0;" edge="1" parent="1" source="9xIQcFNXHzisJka93iCH-5" target="9xIQcFNXHzisJka93iCH-5">
          <mxGeometry relative="1" as="geometry" />
        </mxCell>
        <mxCell id="9xIQcFNXHzisJka93iCH-125" style="edgeStyle=orthogonalEdgeStyle;rounded=0;orthogonalLoop=1;jettySize=auto;html=1;exitX=0;exitY=0.5;exitDx=0;exitDy=0;exitPerimeter=0;entryX=1.021;entryY=0.108;entryDx=0;entryDy=0;entryPerimeter=0;" edge="1" parent="1" source="9xIQcFNXHzisJka93iCH-72" target="9xIQcFNXHzisJka93iCH-100">
          <mxGeometry relative="1" as="geometry" />
        </mxCell>
      </root>
    </mxGraphModel>
  </diagram>
</mxfile>
